<mxfile host="www.draw.io" modified="2019-10-14T17:22:06.890Z" agent="Mozilla/5.0 (Windows NT 10.0; Win64; x64) AppleWebKit/537.36 (KHTML, like Gecko) Chrome/77.0.3865.90 Safari/537.36" etag="xavQMf-7oWwkcqKGnHYw" version="12.1.1" type="github" pages="1">
  <diagram id="51ChYxjnz7ZS5S5mbIND" name="Page-1">
    <mxGraphModel dx="1038" dy="540" grid="1" gridSize="10" guides="1" tooltips="1" connect="1" arrows="1" fold="1" page="1" pageScale="1" pageWidth="827" pageHeight="1169" math="0" shadow="0">
      <root>
        <mxCell id="0"/>
        <mxCell id="1" parent="0"/>
        <mxCell id="zUysNH8oXELnEuWPDXSs-1" value="Smart Contract Platform (Ethereum)" style="rounded=0;whiteSpace=wrap;html=1;align=center;verticalAlign=top;" parent="1" vertex="1">
          <mxGeometry x="158" y="63" width="522" height="160" as="geometry"/>
        </mxCell>
        <mxCell id="zUysNH8oXELnEuWPDXSs-2" value="TEE Platform (SCONE)" style="rounded=0;whiteSpace=wrap;html=1;align=center;verticalAlign=top;" parent="1" vertex="1">
          <mxGeometry x="158" y="280" width="522" height="210" as="geometry"/>
        </mxCell>
        <mxCell id="zUysNH8oXELnEuWPDXSs-32" style="edgeStyle=orthogonalEdgeStyle;rounded=0;orthogonalLoop=1;jettySize=auto;html=1;exitX=0.5;exitY=0;exitDx=0;exitDy=0;entryX=0.064;entryY=0.972;entryDx=0;entryDy=0;entryPerimeter=0;startArrow=none;startFill=0;" parent="1" source="zUysNH8oXELnEuWPDXSs-3" target="zUysNH8oXELnEuWPDXSs-31" edge="1">
          <mxGeometry relative="1" as="geometry"/>
        </mxCell>
        <mxCell id="zUysNH8oXELnEuWPDXSs-3" value="Join&amp;nbsp;" style="rounded=0;whiteSpace=wrap;html=1;align=center;fillColor=#dae8fc;strokeColor=#6c8ebf;" parent="1" vertex="1">
          <mxGeometry x="180" y="157" width="60" height="40" as="geometry"/>
        </mxCell>
        <mxCell id="zUysNH8oXELnEuWPDXSs-34" style="edgeStyle=orthogonalEdgeStyle;rounded=0;orthogonalLoop=1;jettySize=auto;html=1;exitX=0.5;exitY=0;exitDx=0;exitDy=0;entryX=0.237;entryY=0.9;entryDx=0;entryDy=0;entryPerimeter=0;startArrow=none;startFill=0;" parent="1" source="zUysNH8oXELnEuWPDXSs-4" target="zUysNH8oXELnEuWPDXSs-31" edge="1">
          <mxGeometry relative="1" as="geometry"/>
        </mxCell>
        <mxCell id="zUysNH8oXELnEuWPDXSs-4" value="Leave" style="rounded=0;whiteSpace=wrap;html=1;align=center;fillColor=#dae8fc;strokeColor=#6c8ebf;" parent="1" vertex="1">
          <mxGeometry x="259" y="157" width="60" height="40" as="geometry"/>
        </mxCell>
        <mxCell id="zUysNH8oXELnEuWPDXSs-35" style="edgeStyle=orthogonalEdgeStyle;rounded=0;orthogonalLoop=1;jettySize=auto;html=1;exitX=0.5;exitY=0;exitDx=0;exitDy=0;entryX=0.409;entryY=1.018;entryDx=0;entryDy=0;entryPerimeter=0;startArrow=classic;startFill=1;endArrow=none;endFill=0;" parent="1" source="zUysNH8oXELnEuWPDXSs-5" target="zUysNH8oXELnEuWPDXSs-31" edge="1">
          <mxGeometry relative="1" as="geometry"/>
        </mxCell>
        <mxCell id="zUysNH8oXELnEuWPDXSs-5" value="GetRep" style="rounded=0;whiteSpace=wrap;html=1;align=center;fillColor=#d5e8d4;strokeColor=#82b366;" parent="1" vertex="1">
          <mxGeometry x="338" y="157" width="60" height="40" as="geometry"/>
        </mxCell>
        <mxCell id="zUysNH8oXELnEuWPDXSs-36" style="edgeStyle=orthogonalEdgeStyle;rounded=0;orthogonalLoop=1;jettySize=auto;html=1;exitX=0.5;exitY=0;exitDx=0;exitDy=0;entryX=0.58;entryY=0.9;entryDx=0;entryDy=0;entryPerimeter=0;startArrow=classic;startFill=1;endArrow=none;endFill=0;" parent="1" source="zUysNH8oXELnEuWPDXSs-6" target="zUysNH8oXELnEuWPDXSs-31" edge="1">
          <mxGeometry relative="1" as="geometry"/>
        </mxCell>
        <mxCell id="zUysNH8oXELnEuWPDXSs-6" value="GetEig" style="rounded=0;whiteSpace=wrap;html=1;align=center;fillColor=#d5e8d4;strokeColor=#82b366;" parent="1" vertex="1">
          <mxGeometry x="417" y="157" width="60" height="40" as="geometry"/>
        </mxCell>
        <mxCell id="zUysNH8oXELnEuWPDXSs-41" style="edgeStyle=orthogonalEdgeStyle;rounded=0;orthogonalLoop=1;jettySize=auto;html=1;exitX=0.5;exitY=0;exitDx=0;exitDy=0;entryX=0.75;entryY=1;entryDx=0;entryDy=0;startArrow=none;startFill=0;endArrow=classic;endFill=1;" parent="1" source="zUysNH8oXELnEuWPDXSs-7" target="zUysNH8oXELnEuWPDXSs-31" edge="1">
          <mxGeometry relative="1" as="geometry"/>
        </mxCell>
        <mxCell id="zUysNH8oXELnEuWPDXSs-7" value="TI quality assessment" style="rounded=0;whiteSpace=wrap;html=1;align=center;fillColor=#1ba1e2;strokeColor=#006EAF;fontColor=#ffffff;" parent="1" vertex="1">
          <mxGeometry x="491" y="157" width="70" height="40" as="geometry"/>
        </mxCell>
        <mxCell id="zUysNH8oXELnEuWPDXSs-42" style="edgeStyle=orthogonalEdgeStyle;rounded=0;orthogonalLoop=1;jettySize=auto;html=1;exitX=0.5;exitY=0;exitDx=0;exitDy=0;entryX=0.929;entryY=1.001;entryDx=0;entryDy=0;entryPerimeter=0;startArrow=classic;startFill=1;endArrow=classic;endFill=1;" parent="1" source="zUysNH8oXELnEuWPDXSs-8" target="zUysNH8oXELnEuWPDXSs-31" edge="1">
          <mxGeometry relative="1" as="geometry"/>
        </mxCell>
        <mxCell id="zUysNH8oXELnEuWPDXSs-8" value="Eigen&lt;br&gt;trust" style="rounded=0;whiteSpace=wrap;html=1;align=center;fillColor=#f8cecc;strokeColor=#b85450;" parent="1" vertex="1">
          <mxGeometry x="572" y="157" width="70" height="40" as="geometry"/>
        </mxCell>
        <mxCell id="zUysNH8oXELnEuWPDXSs-16" style="edgeStyle=orthogonalEdgeStyle;rounded=0;orthogonalLoop=1;jettySize=auto;html=1;exitX=0.25;exitY=1;exitDx=0;exitDy=0;entryX=0.25;entryY=0;entryDx=0;entryDy=0;fillColor=#e1d5e7;strokeColor=#9673a6;" parent="1" source="zUysNH8oXELnEuWPDXSs-9" target="zUysNH8oXELnEuWPDXSs-12" edge="1">
          <mxGeometry relative="1" as="geometry"/>
        </mxCell>
        <mxCell id="zUysNH8oXELnEuWPDXSs-19" style="edgeStyle=orthogonalEdgeStyle;rounded=0;orthogonalLoop=1;jettySize=auto;html=1;exitX=1;exitY=0.5;exitDx=0;exitDy=0;entryX=0;entryY=0.5;entryDx=0;entryDy=0;fillColor=#60a917;strokeColor=#2D7600;" parent="1" edge="1">
          <mxGeometry relative="1" as="geometry">
            <mxPoint x="315" y="334" as="sourcePoint"/>
            <mxPoint x="516.6666666666667" y="334" as="targetPoint"/>
          </mxGeometry>
        </mxCell>
        <mxCell id="zUysNH8oXELnEuWPDXSs-25" style="edgeStyle=orthogonalEdgeStyle;rounded=0;orthogonalLoop=1;jettySize=auto;html=1;exitX=1;exitY=0.5;exitDx=0;exitDy=0;entryX=0.25;entryY=0;entryDx=0;entryDy=0;startArrow=none;startFill=0;fillColor=#d80073;strokeColor=#A50040;" parent="1" source="zUysNH8oXELnEuWPDXSs-9" target="zUysNH8oXELnEuWPDXSs-11" edge="1">
          <mxGeometry relative="1" as="geometry">
            <Array as="points">
              <mxPoint x="490" y="350"/>
              <mxPoint x="490" y="390"/>
              <mxPoint x="547" y="390"/>
            </Array>
          </mxGeometry>
        </mxCell>
        <mxCell id="zUysNH8oXELnEuWPDXSs-28" style="edgeStyle=orthogonalEdgeStyle;rounded=0;orthogonalLoop=1;jettySize=auto;html=1;exitX=1;exitY=0.75;exitDx=0;exitDy=0;entryX=0.25;entryY=0;entryDx=0;entryDy=0;startArrow=none;startFill=0;fillColor=#1ba1e2;strokeColor=#006EAF;" parent="1" source="zUysNH8oXELnEuWPDXSs-9" target="zUysNH8oXELnEuWPDXSs-10" edge="1">
          <mxGeometry relative="1" as="geometry"/>
        </mxCell>
        <mxCell id="zUysNH8oXELnEuWPDXSs-9" value="Restful API&lt;br&gt;Server ( Flask)" style="rounded=0;whiteSpace=wrap;html=1;align=center;" parent="1" vertex="1">
          <mxGeometry x="195" y="320" width="120" height="60" as="geometry"/>
        </mxCell>
        <mxCell id="zUysNH8oXELnEuWPDXSs-29" style="edgeStyle=orthogonalEdgeStyle;rounded=0;orthogonalLoop=1;jettySize=auto;html=1;exitX=0.75;exitY=0;exitDx=0;exitDy=0;entryX=0;entryY=0.75;entryDx=0;entryDy=0;startArrow=none;startFill=0;fillColor=#1ba1e2;strokeColor=#006EAF;" parent="1" source="zUysNH8oXELnEuWPDXSs-10" target="zUysNH8oXELnEuWPDXSs-13" edge="1">
          <mxGeometry relative="1" as="geometry"/>
        </mxCell>
        <mxCell id="zUysNH8oXELnEuWPDXSs-10" value="TIQ Assessment&lt;br&gt;Module" style="rounded=0;whiteSpace=wrap;html=1;align=center;fillColor=#1ba1e2;strokeColor=#006EAF;fontColor=#ffffff;" parent="1" vertex="1">
          <mxGeometry x="353" y="410" width="120" height="60" as="geometry"/>
        </mxCell>
        <mxCell id="zUysNH8oXELnEuWPDXSs-26" style="edgeStyle=orthogonalEdgeStyle;rounded=0;orthogonalLoop=1;jettySize=auto;html=1;exitX=0.75;exitY=0;exitDx=0;exitDy=0;entryX=0.75;entryY=1;entryDx=0;entryDy=0;startArrow=classic;startFill=1;fillColor=#d80073;strokeColor=#A50040;" parent="1" source="zUysNH8oXELnEuWPDXSs-11" target="zUysNH8oXELnEuWPDXSs-13" edge="1">
          <mxGeometry relative="1" as="geometry"/>
        </mxCell>
        <mxCell id="zUysNH8oXELnEuWPDXSs-11" value="Eigen Trust&lt;br&gt;Module" style="rounded=0;whiteSpace=wrap;html=1;align=center;fillColor=#f8cecc;strokeColor=#b85450;" parent="1" vertex="1">
          <mxGeometry x="517" y="410" width="120" height="60" as="geometry"/>
        </mxCell>
        <mxCell id="zUysNH8oXELnEuWPDXSs-17" style="edgeStyle=orthogonalEdgeStyle;rounded=0;orthogonalLoop=1;jettySize=auto;html=1;exitX=0.75;exitY=0;exitDx=0;exitDy=0;entryX=0.75;entryY=1;entryDx=0;entryDy=0;fillColor=#e1d5e7;strokeColor=#9673a6;" parent="1" source="zUysNH8oXELnEuWPDXSs-12" target="zUysNH8oXELnEuWPDXSs-9" edge="1">
          <mxGeometry relative="1" as="geometry"/>
        </mxCell>
        <mxCell id="zUysNH8oXELnEuWPDXSs-12" value="p2p Util&lt;br&gt;Module" style="rounded=0;whiteSpace=wrap;html=1;align=center;" parent="1" vertex="1">
          <mxGeometry x="195" y="410" width="120" height="60" as="geometry"/>
        </mxCell>
        <mxCell id="zUysNH8oXELnEuWPDXSs-24" style="edgeStyle=orthogonalEdgeStyle;rounded=0;orthogonalLoop=1;jettySize=auto;html=1;exitX=0.25;exitY=0;exitDx=0;exitDy=0;entryX=0.1;entryY=0.5;entryDx=0;entryDy=0;entryPerimeter=0;startArrow=classic;startFill=1;fillColor=#60a917;strokeColor=#2D7600;" parent="1" source="zUysNH8oXELnEuWPDXSs-13" target="zUysNH8oXELnEuWPDXSs-23" edge="1">
          <mxGeometry relative="1" as="geometry">
            <Array as="points">
              <mxPoint x="547" y="260"/>
              <mxPoint x="329" y="260"/>
            </Array>
          </mxGeometry>
        </mxCell>
        <mxCell id="zUysNH8oXELnEuWPDXSs-27" style="edgeStyle=orthogonalEdgeStyle;rounded=0;orthogonalLoop=1;jettySize=auto;html=1;exitX=0.5;exitY=0;exitDx=0;exitDy=0;entryX=0.5;entryY=1;entryDx=0;entryDy=0;startArrow=none;startFill=0;fillColor=#1ba1e2;strokeColor=#006EAF;" parent="1" edge="1">
          <mxGeometry relative="1" as="geometry">
            <Array as="points">
              <mxPoint x="577" y="249"/>
              <mxPoint x="526" y="249"/>
            </Array>
            <mxPoint x="577" y="320" as="sourcePoint"/>
            <mxPoint x="526" y="196" as="targetPoint"/>
          </mxGeometry>
        </mxCell>
        <mxCell id="zUysNH8oXELnEuWPDXSs-30" style="edgeStyle=orthogonalEdgeStyle;rounded=0;orthogonalLoop=1;jettySize=auto;html=1;exitX=0.75;exitY=0;exitDx=0;exitDy=0;entryX=0.5;entryY=1;entryDx=0;entryDy=0;startArrow=classic;startFill=1;fillColor=#d80073;strokeColor=#A50040;" parent="1" source="zUysNH8oXELnEuWPDXSs-13" target="zUysNH8oXELnEuWPDXSs-8" edge="1">
          <mxGeometry relative="1" as="geometry"/>
        </mxCell>
        <mxCell id="zUysNH8oXELnEuWPDXSs-13" value="Ethereum Agent&lt;br&gt;Module (web3py)&lt;br&gt;" style="rounded=0;whiteSpace=wrap;html=1;align=center;" parent="1" vertex="1">
          <mxGeometry x="517.0000000000002" y="320" width="120" height="60" as="geometry"/>
        </mxCell>
        <mxCell id="zUysNH8oXELnEuWPDXSs-14" value="" style="endArrow=classic;html=1;entryX=0;entryY=0.5;entryDx=0;entryDy=0;" parent="1" target="zUysNH8oXELnEuWPDXSs-9" edge="1">
          <mxGeometry width="50" height="50" relative="1" as="geometry">
            <mxPoint x="120" y="350" as="sourcePoint"/>
            <mxPoint x="100" y="350" as="targetPoint"/>
          </mxGeometry>
        </mxCell>
        <mxCell id="zUysNH8oXELnEuWPDXSs-15" value="User Requests" style="text;html=1;strokeColor=none;fillColor=none;align=center;verticalAlign=middle;whiteSpace=wrap;rounded=0;" parent="1" vertex="1">
          <mxGeometry x="71" y="341" width="40" height="20" as="geometry"/>
        </mxCell>
        <mxCell id="zUysNH8oXELnEuWPDXSs-18" value="TIS" style="text;html=1;strokeColor=#9673a6;fillColor=#e1d5e7;align=center;verticalAlign=middle;whiteSpace=wrap;rounded=0;" parent="1" vertex="1">
          <mxGeometry x="235" y="385" width="40" height="20" as="geometry"/>
        </mxCell>
        <mxCell id="zUysNH8oXELnEuWPDXSs-23" value="" style="shape=curlyBracket;whiteSpace=wrap;html=1;rounded=1;align=center;rotation=-90;fillColor=#60a917;strokeColor=#2D7600;fontColor=#ffffff;" parent="1" vertex="1">
          <mxGeometry x="319" y="83" width="20" height="250" as="geometry"/>
        </mxCell>
        <mxCell id="zUysNH8oXELnEuWPDXSs-31" value="Global State" style="rounded=0;whiteSpace=wrap;html=1;align=center;fillColor=#f5f5f5;strokeColor=#666666;fontColor=#333333;" parent="1" vertex="1">
          <mxGeometry x="180" y="106" width="460" height="30" as="geometry"/>
        </mxCell>
      </root>
    </mxGraphModel>
  </diagram>
</mxfile>
